<svg width="370" height="347" viewBox="0 0 370 347" fill="none" xmlns="http://www.w3.org/2000/svg">
<path d="M335.313 220H34.6875C25.4878 220 16.6649 222.06 10.1597 225.727C3.65456 229.395 0 234.369 0 239.555C0 244.741 3.65456 249.715 10.1597 253.382C13.4622 255.244 20.8799 251.652 28.5869 247.663C41.1718 241.15 55.0328 242.507 67.9987 248.224L73.7778 250.772C97.4281 261.2 124.155 262.26 148.557 253.739L154.604 251.627C176.952 243.823 201.318 244.034 223.527 252.225L224.42 252.554C249.523 261.812 277.258 260.836 301.648 249.836L304.448 248.573C317.629 242.629 331.692 241.396 344.292 248.488C350.753 252.125 356.768 255.114 359.84 253.382C366.345 249.715 370 244.741 370 239.555C370 234.369 366.345 229.395 359.84 225.727C353.335 222.06 344.512 220 335.313 220Z" fill="#39B300"/>
<path d="M23.5667 280H347.433C350.501 280 353.443 281.176 355.612 283.271C357.781 285.365 359 288.205 359 291.167V302.333C359 314.18 354.125 325.541 345.449 333.917C336.772 342.294 325.004 347 312.733 347H58.2667C45.996 347 34.2279 342.294 25.5512 333.917C16.8745 325.541 12 314.18 12 302.333V291.167C12 288.205 13.2186 285.365 15.3878 283.271C17.557 281.176 20.499 280 23.5667 280Z" fill="#FFC061"/>
<path d="M327.846 133.515H42.6389C17.6602 133.515 3.15851 102.98 17.4795 80.7418C46.5118 35.604 110.429 0.0695391 185.242 0C260.063 0.0695391 323.973 35.604 353.005 80.7488C367.311 102.987 352.824 133.515 327.846 133.515Z" fill="#FFC061"/>
<path d="M283.842 58.5495C281.941 57.3269 279.706 56.6744 277.42 56.6744C274.353 56.6744 271.413 57.8466 269.245 59.9332C267.077 62.0198 265.859 64.8498 265.859 67.8006C265.859 70.0012 266.537 72.1523 267.807 73.982C269.077 75.8117 270.883 77.2378 272.995 78.0799C275.108 78.922 277.432 79.1424 279.675 78.7131C281.918 78.2838 283.977 77.2241 285.594 75.668C287.211 74.112 288.312 72.1295 288.758 69.9712C289.204 67.8129 288.975 65.5759 288.1 63.5428C287.225 61.5098 285.744 59.772 283.842 58.5495Z" fill="white"/>
<path d="M191.356 36.297C189.455 35.0744 187.22 34.4219 184.933 34.4219C181.867 34.4219 178.926 35.5941 176.758 37.6807C174.59 39.7672 173.372 42.5973 173.372 45.5481C173.372 47.7487 174.05 49.8998 175.321 51.7295C176.591 53.5592 178.396 54.9853 180.509 55.8274C182.621 56.6695 184.946 56.8899 187.188 56.4606C189.431 56.0313 191.491 54.9716 193.108 53.4155C194.725 51.8595 195.826 49.877 196.272 47.7187C196.718 45.5604 196.489 43.3234 195.614 41.2903C194.739 39.2572 193.257 37.5195 191.356 36.297Z" fill="white"/>
<path d="M98.8692 58.5495C96.968 57.3269 94.7328 56.6744 92.4463 56.6744C89.3802 56.6744 86.4396 57.8466 84.2715 59.9332C82.1035 62.0198 80.8854 64.8498 80.8854 67.8006C80.8854 70.0012 81.5634 72.1523 82.8337 73.982C84.1041 75.8117 85.9097 77.2378 88.0222 78.0799C90.1346 78.922 92.4591 79.1424 94.7017 78.7131C96.9443 78.2838 99.0043 77.2241 100.621 75.668C102.238 74.112 103.339 72.1295 103.785 69.9712C104.231 67.8129 104.002 65.5759 103.127 63.5428C102.252 61.5098 100.77 59.772 98.8692 58.5495Z" fill="white"/>
</svg>
